<svg width="23" height="23" viewBox="0 0 23 23" fill="none" xmlns="http://www.w3.org/2000/svg">
<mask id="mask0_0_4" style="mask-type:alpha" maskUnits="userSpaceOnUse" x="-4" y="-4" width="31" height="31">
<rect x="-3.85461" y="-3.83333" width="30.6667" height="30.6667" fill="#D9D9D9"/>
</mask>
<g mask="url(#mask0_0_4)">
<path d="M11.4148 23C8.31973 23 5.67011 21.9263 3.46594 19.7789C1.26177 17.6315 0.10646 15.0068 0 11.9046H2.15092C2.25028 14.4176 3.18909 16.5401 4.96733 18.2722C6.74557 20.0043 8.89473 20.8704 11.4148 20.8704C14.0485 20.8704 16.2792 19.9493 18.1072 18.1072C19.9351 16.265 20.8491 14.0272 20.8491 11.3935C20.8491 8.80247 19.928 6.61072 18.0859 4.81828C16.2437 3.02583 14.02 2.12961 11.4148 2.12961C9.95956 2.12961 8.5966 2.46326 7.32592 3.13056C6.05523 3.79783 4.96202 4.69227 4.04627 5.81386H7.45369V7.9435H0.447222V0.958333H2.57683V4.21667C3.67715 2.8963 4.99575 1.86343 6.53264 1.11806C8.06951 0.372685 9.6969 0 11.4148 0C13.012 0 14.5116 0.299926 15.9136 0.899779C17.3157 1.49961 18.5402 2.31596 19.5872 3.34883C20.6343 4.3817 21.4613 5.59205 22.0683 6.97986C22.6752 8.36768 22.9787 9.8602 22.9787 11.4574C22.9787 13.0546 22.6752 14.5543 22.0683 15.9562C21.4613 17.3582 20.6343 18.5792 19.5872 19.6192C18.5402 20.6592 17.3157 21.4826 15.9136 22.0896C14.5116 22.6965 13.012 23 11.4148 23ZM15.3333 16.7602L10.4352 11.9046V5.04722H12.5648V11.0315L16.8454 15.2481L15.3333 16.7602Z" fill="black"/>
</g>
</svg>
