<svg width="21" height="19" viewBox="0 0 21 19" fill="none" xmlns="http://www.w3.org/2000/svg">
<mask id="path-1-inside-1_67_505" fill="white">
<path d="M19.3807 1.6193C18.8676 1.10593 18.2583 0.698695 17.5878 0.420851C16.9172 0.143007 16.1985 0 15.4727 0C14.7468 0 14.0281 0.143007 13.3576 0.420851C12.687 0.698695 12.0778 1.10593 11.5646 1.6193L10.4997 2.68421L9.43482 1.6193C8.39834 0.582822 6.99258 0.00053724 5.52679 0.000537251C4.06099 0.000537262 2.65523 0.582822 1.61876 1.6193C0.582285 2.65577 1.0921e-08 4.06153 0 5.52732C-1.0921e-08 6.99312 0.582285 8.39888 1.61876 9.43535L2.68367 10.5003L10.4997 18.3163L18.3158 10.5003L19.3807 9.43535C19.8941 8.92223 20.3013 8.31299 20.5791 7.64244C20.857 6.97188 21 6.25316 21 5.52732C21 4.80149 20.857 4.08276 20.5791 3.41221C20.3013 2.74166 19.8941 2.13242 19.3807 1.6193Z"/>
</mask>
<path d="M19.3807 1.6193L-16.1468 37.1302C-16.1413 37.1357 -16.1357 37.1413 -16.1302 37.1468L19.3807 1.6193ZM15.4727 0V50.2317V0ZM11.5646 1.6193L47.0838 37.1385L47.0922 37.1302L11.5646 1.6193ZM10.4997 2.68421L-25.0195 38.2034C-5.40275 57.8201 26.4022 57.8201 46.0189 38.2034L10.4997 2.68421ZM9.43482 1.6193L-26.0844 37.1385L-26.0844 37.1385L9.43482 1.6193ZM1.61876 9.43535L-33.9004 44.9546H-33.9004L1.61876 9.43535ZM2.68367 10.5003L-32.8355 46.0195L2.68367 10.5003ZM10.4997 18.3163L-25.0195 53.8355C-5.40276 73.4522 26.4022 73.4522 46.0189 53.8355L10.4997 18.3163ZM19.3807 9.43535L-16.1302 -26.0922L-16.1385 -26.0838L19.3807 9.43535ZM54.9082 -33.8916C49.7304 -39.0719 43.5826 -43.1813 36.8161 -45.985L-1.64051 46.8267C-7.06589 44.5787 -11.9952 41.2837 -16.1468 37.1302L54.9082 -33.8916ZM36.8161 -45.985C30.0496 -48.7887 22.797 -50.2317 15.4727 -50.2317V50.2317C9.59998 50.2317 3.78485 49.0747 -1.64051 46.8267L36.8161 -45.985ZM15.4727 -50.2317C8.14834 -50.2317 0.895755 -48.7887 -5.87074 -45.985L32.5859 46.8267C27.1605 49.0747 21.3453 50.2317 15.4727 50.2317V-50.2317ZM-5.87074 -45.985C-12.6372 -43.1813 -18.785 -39.0719 -23.9629 -33.8916L47.0922 37.1302C42.9406 41.2837 38.0113 44.5786 32.5859 46.8267L-5.87074 -45.985ZM-23.9545 -33.8999L-25.0195 -32.835L46.0189 38.2034L47.0838 37.1385L-23.9545 -33.8999ZM46.0189 -32.835L44.954 -33.8999L-26.0844 37.1385L-25.0195 38.2034L46.0189 -32.835ZM44.954 -33.8999C34.4973 -44.3566 20.3149 -50.2312 5.52679 -50.2312L5.52679 50.2323C-6.32971 50.2323 -17.7006 45.5223 -26.0844 37.1385L44.954 -33.8999ZM5.52679 -50.2312C-9.2613 -50.2312 -23.4437 -44.3567 -33.9004 -33.8999L37.138 37.1385C28.7542 45.5223 17.3833 50.2323 5.52679 50.2323L5.52679 -50.2312ZM-33.9004 -33.8999C-44.3572 -23.4432 -50.2317 -9.26076 -50.2317 5.52732L50.2317 5.52732C50.2317 17.3838 45.5218 28.7547 37.138 37.1385L-33.9004 -33.8999ZM-50.2317 5.52732C-50.2317 20.3154 -44.3572 34.4978 -33.9004 44.9546L37.138 -26.0838C45.5218 -17.7 50.2317 -6.32916 50.2317 5.52732L-50.2317 5.52732ZM-33.9004 44.9546L-32.8355 46.0195L38.2029 -25.0189L37.138 -26.0838L-33.9004 44.9546ZM-32.8355 46.0195L-25.0195 53.8355L46.0189 -17.2029L38.2029 -25.0189L-32.8355 46.0195ZM46.0189 53.8355L53.835 46.0195L-17.2034 -25.0189L-25.0195 -17.2029L46.0189 53.8355ZM53.835 46.0195L54.8999 44.9546L-16.1385 -26.0838L-17.2034 -25.0189L53.835 46.0195ZM54.8916 44.9629C60.0719 39.785 64.1813 33.6372 66.985 26.8707L-25.8267 -11.5859C-23.5787 -17.0112 -20.2838 -21.9405 -16.1302 -26.0922L54.8916 44.9629ZM66.985 26.8707C69.7886 20.1043 71.2317 12.8517 71.2317 5.52732H-29.2317C-29.2317 -0.345412 -28.0747 -6.16054 -25.8267 -11.5859L66.985 26.8707ZM71.2317 5.52732C71.2317 -1.79709 69.7886 -9.04966 66.985 -15.8161L-25.8267 22.6405C-28.0747 17.2152 -29.2317 11.4001 -29.2317 5.52732H71.2317ZM66.985 -15.8161C64.1813 -22.5825 60.0719 -28.7303 54.8916 -33.9082L-16.1302 37.1468C-20.2838 32.9952 -23.5787 28.0659 -25.8267 22.6405L66.985 -15.8161Z" fill="#FFB8B8" mask="url(#path-1-inside-1_67_505)"/>
</svg>
