<svg width="15" height="15" viewBox="0 0 15 15" fill="none" xmlns="http://www.w3.org/2000/svg">
<path d="M6.9195 0.610096C7.15726 0.128518 7.84277 0.131458 8.08046 0.610002C8.08054 0.610156 8.08061 0.61031 8.08069 0.610464L9.9113 4.32214L9.96942 4.43999L10.0994 4.45895L14.1957 5.05614L14.1959 5.05617C14.7251 5.13293 14.9379 5.78629 14.5536 6.16048L14.5536 6.16055L11.59 9.04839L11.4958 9.14017L11.5181 9.26978L12.219 13.349C12.3097 13.8789 11.7509 14.2777 11.2808 14.0305L11.2808 14.0304L7.61632 12.1043L7.5 12.0431L7.38368 12.1043L3.7192 14.0304L3.71842 14.0309C3.25005 14.2792 2.69009 13.8804 2.78101 13.349L3.48191 9.26978L3.50418 9.14017L3.41 9.04839L0.446451 6.16055L0.44638 6.16048C0.0620746 5.78629 0.274867 5.13293 0.80412 5.05617L0.804303 5.05614L4.90056 4.45895L5.03058 4.43999L5.0887 4.32214L6.9195 0.610096Z" fill="#FFD037" stroke="#EF2222" stroke-width="0.5"/>
</svg>
