<svg width="335" height="200" viewBox="0 0 335 200" fill="none" xmlns="http://www.w3.org/2000/svg">
<g clip-path="url(#clip0_1_240)">
<path d="M256.484 197.738C252.195 194.119 249.59 188.402 250.273 182.837C250.956 177.272 255.188 172.155 260.677 170.973C266.166 169.792 272.423 173.063 274.09 178.417C275.007 168.095 276.065 157.339 281.561 148.548C286.537 140.589 295.156 134.893 304.498 133.874C313.839 132.855 323.675 136.704 329.501 144.066C335.327 151.429 336.753 162.133 332.673 170.586C329.667 176.813 324.129 181.447 318.327 185.217C299.578 197.297 277.091 202.21 255.003 199.051L256.484 197.738Z" fill="#F2F2F2"/>
<path d="M320.263 136.917C312.555 143.186 305.484 150.198 299.152 157.851C289.242 169.786 281.223 183.168 275.374 197.53C274.945 198.578 276.649 199.034 277.073 197.998C286.643 174.656 301.921 154.084 321.509 138.161C322.388 137.446 321.135 136.208 320.263 136.917Z" fill="white"/>
<path d="M107.842 196.755C113.733 191.784 117.311 183.932 116.373 176.288C115.434 168.644 109.622 161.617 102.083 159.993C94.5442 158.37 85.9502 162.864 83.6604 170.218C82.4002 156.039 80.948 141.267 73.3992 129.193C66.564 118.26 54.7253 110.437 41.8947 109.037C29.0642 107.638 15.5553 112.924 7.55331 123.036C-0.448629 133.149 -2.40787 147.851 3.19648 159.461C7.32501 168.014 14.9312 174.379 22.9006 179.557C48.3258 196.078 79.8657 202.968 109.876 198.558" fill="#F2F2F2"/>
<path d="M20.2413 113.217C30.828 121.828 40.5403 131.458 49.2376 141.969C57.9362 152.47 65.5944 163.788 72.1046 175.764C75.7435 182.483 79.0125 189.395 81.8968 196.469C82.4849 197.908 80.1448 198.534 79.5632 197.111C74.4543 184.639 68.1337 172.697 60.6919 161.457C53.2863 150.257 44.8102 139.8 35.3826 130.235C30.0503 124.827 24.4243 119.716 18.5301 114.926C17.3219 113.943 19.0431 112.242 20.2413 113.217L20.2413 113.217Z" fill="white"/>
<path d="M240.468 199.562H99.9224V55.5621C99.9224 24.925 124.883 0 155.563 0H184.828C215.508 0 240.468 24.925 240.468 55.5621V199.562Z" fill="#F2F2F2"/>
<path d="M211.204 199.562H99.9223V55.5621C99.8916 43.8226 103.614 32.3799 110.548 22.8999C110.804 22.552 111.059 22.2086 111.322 21.8689C114.676 17.4763 118.667 13.6078 123.164 10.391C123.418 10.2065 123.673 10.0251 123.932 9.84373C127.695 7.24342 131.765 5.11773 136.05 3.51503C136.305 3.41871 136.564 3.3222 136.823 3.22964C140.699 1.8485 144.716 0.902424 148.801 0.408884C149.055 0.374335 149.315 0.347301 149.575 0.320265C153.556 -0.104802 157.571 -0.104802 161.552 0.320265C161.811 0.347301 162.071 0.374332 162.328 0.409253C166.412 0.902826 170.429 1.84879 174.303 3.22966C174.562 3.32222 174.821 3.41872 175.077 3.51523C179.309 5.09771 183.332 7.19169 187.054 9.75042C187.313 9.92785 187.572 10.1092 187.827 10.2906C190.348 12.0873 192.715 14.089 194.906 16.2751C196.662 18.0287 198.299 19.8979 199.805 21.8701C200.067 22.2086 200.322 22.552 200.578 22.8993C207.512 32.3795 211.235 43.8224 211.204 55.5621V199.562Z" fill="#CCCCCC"/>
<path d="M202.155 135.156C205.558 135.156 208.316 132.402 208.316 129.004C208.316 125.606 205.558 122.852 202.155 122.852C198.752 122.852 195.994 125.606 195.994 129.004C195.994 132.402 198.752 135.156 202.155 135.156Z" fill="#F9A826"/>
<path d="M228.955 195.249H224.234L221.988 177.066L228.956 177.067L228.955 195.249Z" fill="#FFB8B8"/>
<path d="M220.862 193.902H229.966V199.626H215.13C215.13 198.875 215.278 198.13 215.566 197.436C215.854 196.741 216.276 196.11 216.809 195.579C217.341 195.047 217.973 194.625 218.668 194.338C219.364 194.05 220.109 193.902 220.862 193.902Z" fill="#2F2E41"/>
<path d="M252.443 195.249H247.723L245.477 177.066L252.444 177.067L252.443 195.249Z" fill="#FFB8B8"/>
<path d="M244.35 193.902H253.455V199.626H238.618C238.618 198.875 238.766 198.13 239.055 197.436C239.343 196.741 239.765 196.11 240.297 195.579C240.829 195.047 241.461 194.625 242.157 194.338C242.852 194.05 243.598 193.902 244.35 193.902Z" fill="#2F2E41"/>
<path d="M205.273 130.223C204.934 129.723 204.708 129.155 204.612 128.559C204.516 127.963 204.552 127.353 204.717 126.772C204.883 126.191 205.174 125.654 205.57 125.197C205.966 124.741 206.458 124.377 207.01 124.131L223.058 79.9633L230.954 84.2665L212.631 126.475C212.984 127.429 212.974 128.478 212.603 129.425C212.232 130.372 211.526 131.15 210.619 131.612C209.712 132.074 208.667 132.188 207.682 131.932C206.697 131.676 205.84 131.068 205.273 130.223Z" fill="#FFB8B8"/>
<path d="M250.032 138.522C249.507 138.222 249.055 137.81 248.707 137.316C248.359 136.823 248.123 136.259 248.017 135.664C247.911 135.07 247.937 134.459 248.092 133.876C248.248 133.292 248.53 132.75 248.918 132.287L243.947 85.5647L252.933 85.9747L254.999 131.932C255.735 132.635 256.187 133.583 256.269 134.596C256.352 135.609 256.059 136.618 255.447 137.43C254.834 138.242 253.945 138.802 252.947 139.004C251.949 139.205 250.912 139.034 250.032 138.522Z" fill="#FFB8B8"/>
<path d="M235.696 71.7822C240.919 71.7822 245.153 67.554 245.153 62.3382C245.153 57.1224 240.919 52.8942 235.696 52.8942C230.473 52.8942 226.239 57.1224 226.239 62.3382C226.239 67.554 230.473 71.7822 235.696 71.7822Z" fill="#FFB8B8"/>
<path d="M249.972 127.896H221.459L221.494 127.675C221.545 127.343 226.575 94.4377 222.865 83.6725C222.493 82.6146 222.525 81.4566 222.957 80.4213C223.388 79.3861 224.188 78.5468 225.202 78.065H225.202C230.505 75.5713 240.684 72.5006 249.276 79.9526C250.54 81.0672 251.528 82.4603 252.16 84.0217C252.792 85.583 253.052 87.2698 252.918 88.9487L249.972 127.896Z" fill="#F9A826"/>
<path d="M226.935 99.3007L214.099 96.7001L220.116 82.4617C220.476 81.0827 221.369 79.9025 222.599 79.1801C223.83 78.4577 225.297 78.2521 226.678 78.6084C228.06 78.9646 229.244 79.8536 229.971 81.0804C230.697 82.3072 230.907 83.7716 230.553 85.1524L226.935 99.3007Z" fill="#F9A826"/>
<path d="M243.376 104.129L242.604 86.4641C242.019 83.1434 243.922 80.0042 246.85 79.4911C249.779 78.9798 252.638 81.283 253.226 84.6281L256.127 101.134L243.376 104.129Z" fill="#F9A826"/>
<path d="M249.023 125.781C253.611 143.229 254.111 165.413 252.873 189.61L246.712 188.841L235.546 142.7L229.385 189.61L222.454 189.226C220.383 163.837 218.367 142.04 221.684 127.704L249.023 125.781Z" fill="#2F2E41"/>
<path d="M241.927 69.6368C240.163 71.5135 236.886 70.5061 236.657 67.9422C236.639 67.7431 236.64 67.5428 236.66 67.344C236.779 66.2083 237.436 65.1773 237.279 63.9781C237.243 63.6797 237.132 63.3953 236.955 63.1519C235.549 61.2719 232.249 63.9927 230.922 62.2908C230.109 61.2473 231.065 59.6042 230.441 58.4378C229.617 56.8984 227.176 57.6578 225.645 56.8147C223.942 55.8767 224.044 53.2675 225.165 51.6804C226.532 49.745 228.929 48.7122 231.296 48.5633C233.664 48.4145 236.015 49.0535 238.225 49.9135C240.736 50.8907 243.226 52.2412 244.771 54.446C246.65 57.1273 246.831 60.732 245.891 63.8672C245.319 65.7744 243.368 68.1043 241.927 69.6368Z" fill="#2F2E41"/>
<path d="M323.441 199.81H39.1556C39.0343 199.809 38.918 199.761 38.8323 199.675C38.7466 199.589 38.6985 199.473 38.6985 199.352C38.6985 199.231 38.7466 199.114 38.8323 199.029C38.918 198.943 39.0343 198.894 39.1556 198.894H323.441C323.563 198.894 323.679 198.943 323.765 199.029C323.85 199.114 323.898 199.231 323.898 199.352C323.898 199.473 323.85 199.589 323.765 199.675C323.679 199.761 323.563 199.809 323.441 199.81Z" fill="#3F3D56"/>
<path d="M180.592 157.843H130.534C129.875 157.846 129.241 157.588 128.772 157.126C128.303 156.663 128.037 156.034 128.031 155.376V43.8019C128.037 43.1436 128.303 42.5142 128.772 42.0517C129.241 41.5893 129.875 41.3316 130.534 41.3351H180.592C181.251 41.3316 181.885 41.5893 182.354 42.0517C182.823 42.5142 183.09 43.1436 183.095 43.8019V155.376C183.09 156.034 182.823 156.663 182.354 157.126C181.885 157.588 181.251 157.846 180.592 157.843Z" fill="white"/>
<path d="M183.095 77.4369H128.031V78.2059H183.095V77.4369Z" fill="#CCCCCC"/>
<path d="M183.287 121.314H128.224V122.083H183.287V121.314Z" fill="#CCCCCC"/>
<path d="M146.129 41.3352H145.359V158.227H146.129V41.3352Z" fill="#CCCCCC"/>
<path d="M165.382 41.3352H164.612V158.227H165.382V41.3352Z" fill="#CCCCCC"/>
</g>
<defs>
<clipPath id="clip0_1_240">
<rect width="335" height="200" fill="white"/>
</clipPath>
</defs>
</svg>
