<svg width="19" height="18" viewBox="0 0 19 18" fill="none" xmlns="http://www.w3.org/2000/svg">
<mask id="mask0_0_23" style="mask-type:alpha" maskUnits="userSpaceOnUse" x="-5" y="-3" width="29" height="24">
<rect x="-4.60604" y="-2.99992" width="27.6366" height="23.9998" fill="#D9D9D9"/>
</mask>
<g mask="url(#mask0_0_23)">
<path d="M3.45458 17.9999C2.82124 17.9999 2.27906 17.8041 1.82805 17.4124C1.37703 17.0207 1.15153 16.5499 1.15153 15.9999V2.99998H0V0.999994H5.75763V0H12.6668V0.999994H18.4244V2.99998H17.2729V15.9999C17.2729 16.5499 17.0474 17.0207 16.5964 17.4124C16.1454 17.8041 15.6032 17.9999 14.9698 17.9999H3.45458ZM14.9698 2.99998H3.45458V15.9999H14.9698V2.99998ZM5.75763 13.9999H8.06068V4.99997H5.75763V13.9999ZM10.3637 13.9999H12.6668V4.99997H10.3637V13.9999Z" fill="#FD1B1B"/>
</g>
</svg>
