<svg width="22" height="22" viewBox="0 0 22 22" fill="none" xmlns="http://www.w3.org/2000/svg">
<g filter="url(#filter0_d_3_428)">
<path d="M22 20.4728L14.7911 13.1656C15.7732 11.7955 16.3576 10.1112 16.3576 8.2942C16.3576 3.72233 12.6893 4.85331e-06 8.18125 4.85331e-06C3.6683 -0.00490586 0 3.71742 0 8.28929C0 12.8612 3.6683 16.5835 8.17634 16.5835C10.1308 16.5835 11.9232 15.8862 13.3326 14.7223L20.5022 21.9951L22 20.4728ZM8.17634 14.6683C4.70938 14.6683 1.88571 11.8054 1.88571 8.28929C1.88571 4.77322 4.70938 1.91027 8.17634 1.91027C11.6433 1.91027 14.467 4.77322 14.467 8.28929C14.467 11.8054 11.6482 14.6683 8.17634 14.6683Z" fill="black"/>
</g>
<defs>
<filter id="filter0_d_3_428" x="-4.02286" y="0" width="30.0457" height="30.0408" filterUnits="userSpaceOnUse" color-interpolation-filters="sRGB">
<feFlood flood-opacity="0" result="BackgroundImageFix"/>
<feColorMatrix in="SourceAlpha" type="matrix" values="0 0 0 0 0 0 0 0 0 0 0 0 0 0 0 0 0 0 127 0" result="hardAlpha"/>
<feOffset dy="4"/>
<feGaussianBlur stdDeviation="2"/>
<feComposite in2="hardAlpha" operator="out"/>
<feColorMatrix type="matrix" values="0 0 0 0 0 0 0 0 0 0 0 0 0 0 0 0 0 0 0.25 0"/>
<feBlend mode="normal" in2="BackgroundImageFix" result="effect1_dropShadow_3_428"/>
<feBlend mode="normal" in="SourceGraphic" in2="effect1_dropShadow_3_428" result="shape"/>
</filter>
</defs>
</svg>
