<svg width="20" height="25" viewBox="0 0 20 25" fill="none" xmlns="http://www.w3.org/2000/svg">
<mask id="mask0_0_8" style="mask-type:alpha" maskUnits="userSpaceOnUse" x="-5" y="-3" width="30" height="31">
<rect x="-5" y="-2.5" width="30" height="30" fill="#D9D9D9"/>
</mask>
<g mask="url(#mask0_0_8)">
<path d="M4.16666 25C3.01586 25 2.03373 24.5933 1.22025 23.7798C0.40675 22.9663 0 21.9841 0 20.8333V4.16666C0 3.01587 0.40675 2.03373 1.22025 1.22025C2.03373 0.406749 3.01586 0 4.16666 0H20V18.75C19.4653 18.75 19.0191 18.9566 18.6615 19.3698C18.3038 19.783 18.125 20.2708 18.125 20.8333C18.125 21.3958 18.3038 21.8837 18.6615 22.2969C19.0191 22.7101 19.4653 22.9167 20 22.9167V25H4.16666ZM2.08331 17.2188C2.38887 17.0313 2.71527 16.8924 3.0625 16.8021C3.40971 16.7118 3.77776 16.6667 4.16666 16.6667H5V2.08331H4.16666C3.58795 2.08331 3.09605 2.28587 2.69097 2.69097C2.28586 3.09605 2.08331 3.58795 2.08331 4.16666V17.2188ZM7.08331 16.6667H17.9167V2.08331H7.08331V16.6667ZM4.15709 22.9167H16.5729C16.4063 22.6111 16.2761 22.283 16.1823 21.9323C16.0886 21.5816 16.0417 21.2153 16.0417 20.8333C16.0417 20.4445 16.0868 20.0764 16.1771 19.7292C16.2674 19.382 16.4063 19.0556 16.5938 18.75H4.15847C3.58059 18.75 3.09027 18.9526 2.6875 19.3577C2.28471 19.7627 2.08331 20.2546 2.08331 20.8333C2.08331 21.4167 2.28471 21.9097 2.6875 22.3125C3.09027 22.7153 3.58014 22.9167 4.15709 22.9167Z" fill="#5F9DF9"/>
</g>
</svg>
