<svg width="18" height="18" viewBox="0 0 18 18" fill="none" xmlns="http://www.w3.org/2000/svg">
<path d="M4.80229 4.87939C4.44921 4.97919 4.12588 5.16382 3.8605 5.4172C3.59512 5.67057 3.39572 5.985 3.27969 6.33309L0 16.1719L0.516439 16.6883L5.79368 11.411C5.68857 11.1909 5.62493 10.9477 5.62493 10.6875C5.62493 9.75553 6.38043 9.00003 7.31242 9.00003C8.2444 9.00003 8.9999 9.75553 8.9999 10.6875C8.9999 11.6195 8.2444 12.375 7.31242 12.375C7.05226 12.375 6.80898 12.3114 6.58891 12.2063L1.31166 17.4835L1.8281 18L11.6668 14.7203C12.0149 14.6042 12.3293 14.4048 12.5827 14.1394C12.8361 13.8741 13.0207 13.5507 13.1205 13.1977L14.6248 7.87503L10.1249 3.37506L4.80229 4.87939ZM17.5055 2.60761L15.3923 0.494381C14.7331 -0.164794 13.664 -0.164794 13.0048 0.494381L11.0168 2.48245L15.5174 6.98313L17.5055 4.99505C18.1647 4.33588 18.1647 3.26714 17.5055 2.60761Z" fill="black"/>
</svg>
