<svg width="36" height="36" viewBox="0 0 36 36" fill="none" xmlns="http://www.w3.org/2000/svg">
<mask id="mask0_59_1323" style="mask-type:alpha" maskUnits="userSpaceOnUse" x="-6" y="-6" width="48" height="48">
<rect x="-6" y="-6" width="48" height="48" fill="#D9D9D9"/>
</mask>
<g mask="url(#mask0_59_1323)">
<path d="M16.5 28H19.5V19.5H28V16.5H19.5V8H16.5V16.5H8V19.5H16.5V28ZM3 36C2.2 36 1.5 35.7 0.9 35.1C0.3 34.5 0 33.8 0 33V3C0 2.2 0.3 1.5 0.9 0.9C1.5 0.3 2.2 0 3 0H33C33.8 0 34.5 0.3 35.1 0.9C35.7 1.5 36 2.2 36 3V33C36 33.8 35.7 34.5 35.1 35.1C34.5 35.7 33.8 36 33 36H3ZM3 33H33V3H3V33Z" fill="#1C1B1F"/>
</g>
</svg>
