<svg width="15" height="15" viewBox="0 0 15 15" fill="none" xmlns="http://www.w3.org/2000/svg">
<path d="M14.196 5.04709L14.1958 5.04706L10.0996 4.4507L9.96968 4.43178L9.91151 4.31405L8.08129 0.609682C8.08128 0.609674 8.08128 0.609666 8.08128 0.609658C7.96263 0.370978 7.73324 0.25 7.49864 0.25C7.26621 0.25 7.03916 0.368525 6.91985 0.609242C6.91982 0.60929 6.9198 0.609336 6.91978 0.609384L5.08883 4.3138L5.03065 4.43153L4.9007 4.45043L0.804288 5.04622L0.804123 5.04625C0.274268 5.12295 0.0626899 5.77451 0.446119 6.14726L0.446171 6.14731L3.40948 9.02974L3.50389 9.12158L3.48153 9.25138L2.78027 13.3224C2.78027 13.3224 2.78026 13.3225 2.78025 13.3225C2.70922 13.7376 3.03935 14.0782 3.41846 14.0782C3.51621 14.0782 3.61784 14.0552 3.71756 14.0023L3.71848 14.0019L7.38308 12.0799L7.49922 12.0189L7.61535 12.0799L11.2797 14.0024L11.1635 14.2238L11.2797 14.0024C11.3794 14.0548 11.4811 14.0776 11.5785 14.0776C11.9591 14.0776 12.289 13.7379 12.2182 13.3234L14.196 5.04709ZM14.196 5.04709C14.7257 5.12378 14.9374 5.77554 14.5537 6.14833L14.5537 6.14839L11.5898 9.03026L11.4954 9.12208L11.5177 9.25189L12.2181 13.3232L14.196 5.04709ZM10.9992 8.42662L10.9992 8.42661L13.3121 6.17719L13.6757 5.82364L13.1739 5.75058L9.97717 5.28519L9.97715 5.28519L9.40722 5.20224L9.15252 4.68669L8.92838 4.79743L9.15252 4.68669L7.72446 1.79615L7.25032 1.90686L7.24948 10.7833L7.24946 10.9345L7.38334 11.0048L8.00962 11.3333L8.00964 11.3333L10.8677 12.833L11.3161 13.0683L11.2302 12.5692L10.684 9.39435L10.5865 8.82789L10.9992 8.42662Z" fill="#FFD037" stroke="#EF2222" stroke-width="0.5"/>
</svg>
