<svg width="15" height="11" viewBox="0 0 15 11" fill="none" xmlns="http://www.w3.org/2000/svg">
<path d="M13.7578 0H10.1172C8.86458 0 7.77604 0.867187 7.5026 2.09115C7.22656 0.867187 6.14062 0 4.88802 0H1.25C0.559896 0 0 0.559896 0 1.25V7.65104C0 8.34114 0.559896 8.90104 1.25 8.90104H3.58594C6.2474 8.90104 7.04167 9.53646 7.42188 10.8542C7.4401 10.9271 7.55729 10.9271 7.57812 10.8542C7.96094 9.53646 8.75521 8.90104 11.4141 8.90104H13.75C14.4401 8.90104 15 8.34114 15 7.65104V1.2526C15 0.565104 14.4453 0.00520833 13.7578 0ZM6.30208 6.91146C6.30208 6.96094 6.26302 7.0026 6.21094 7.0026H2.03646C1.98698 7.0026 1.94531 6.96354 1.94531 6.91146V6.3151C1.94531 6.26562 1.98437 6.22396 2.03646 6.22396H6.21354C6.26302 6.22396 6.30469 6.26302 6.30469 6.3151V6.91146H6.30208ZM6.30208 5.32552C6.30208 5.375 6.26302 5.41667 6.21094 5.41667H2.03646C1.98698 5.41667 1.94531 5.3776 1.94531 5.32552V4.72917C1.94531 4.67969 1.98437 4.63802 2.03646 4.63802H6.21354C6.26302 4.63802 6.30469 4.67708 6.30469 4.72917V5.32552H6.30208ZM6.30208 3.73958C6.30208 3.78906 6.26302 3.83073 6.21094 3.83073H2.03646C1.98698 3.83073 1.94531 3.79167 1.94531 3.73958V3.14323C1.94531 3.09375 1.98437 3.05208 2.03646 3.05208H6.21354C6.26302 3.05208 6.30469 3.09115 6.30469 3.14323V3.73958H6.30208ZM13.0547 6.90885C13.0547 6.95833 13.0156 7 12.9635 7H8.78906C8.73958 7 8.69792 6.96094 8.69792 6.90885V6.3125C8.69792 6.26302 8.73698 6.22135 8.78906 6.22135H12.9661C13.0156 6.22135 13.0573 6.26042 13.0573 6.3125V6.90885H13.0547ZM13.0547 5.32292C13.0547 5.3724 13.0156 5.41406 12.9635 5.41406H8.78906C8.73958 5.41406 8.69792 5.375 8.69792 5.32292V4.72656C8.69792 4.67708 8.73698 4.63542 8.78906 4.63542H12.9661C13.0156 4.63542 13.0573 4.67448 13.0573 4.72656V5.32292H13.0547ZM13.0547 3.73698C13.0547 3.78646 13.0156 3.82812 12.9635 3.82812H8.78906C8.73958 3.82812 8.69792 3.78906 8.69792 3.73698V3.14323C8.69792 3.09375 8.73698 3.05208 8.78906 3.05208H12.9661C13.0156 3.05208 13.0573 3.09115 13.0573 3.14323V3.73698H13.0547Z" fill="black"/>
</svg>
