<svg width="20" height="18" viewBox="0 0 20 18" fill="none" xmlns="http://www.w3.org/2000/svg">
<mask id="mask0_281_585" style="mask-type:alpha" maskUnits="userSpaceOnUse" x="-2" y="-3" width="24" height="24">
<rect x="-2" y="-3" width="24" height="24" fill="#D9D9D9"/>
</mask>
<g mask="url(#mask0_281_585)">
<path d="M10 15C11.3167 15 12.45 14.5542 13.4 13.6625C14.35 12.7708 14.8667 11.6667 14.95 10.35L15.7 11.05L16.75 10L14.25 7.5L11.75 10L12.8 11.05L13.45 10.4C13.35 11.2833 12.975 12.0208 12.325 12.6125C11.675 13.2042 10.9 13.5 10 13.5C9.78333 13.5 9.57083 13.4792 9.3625 13.4375C9.15417 13.3958 8.95 13.3333 8.75 13.25L7.65 14.35C8.01667 14.55 8.39583 14.7083 8.7875 14.825C9.17917 14.9417 9.58333 15 10 15ZM5.75 12.5L8.25 10L7.2 8.95L6.55 9.6C6.65 8.71667 7.025 7.97917 7.675 7.3875C8.325 6.79583 9.1 6.5 10 6.5C10.2167 6.5 10.4292 6.52083 10.6375 6.5625C10.8458 6.60417 11.05 6.66667 11.25 6.75L12.35 5.65C11.9833 5.45 11.6042 5.29167 11.2125 5.175C10.8208 5.05833 10.4167 5 10 5C8.68333 5 7.55 5.44583 6.6 6.3375C5.65 7.22917 5.13333 8.33333 5.05 9.65L4.3 8.95L3.25 10L5.75 12.5ZM2 18C1.45 18 0.979167 17.8042 0.5875 17.4125C0.195833 17.0208 0 16.55 0 16V4C0 3.45 0.195833 2.97917 0.5875 2.5875C0.979167 2.19583 1.45 2 2 2H5.15L7 0H13L14.85 2H18C18.55 2 19.0208 2.19583 19.4125 2.5875C19.8042 2.97917 20 3.45 20 4V16C20 16.55 19.8042 17.0208 19.4125 17.4125C19.0208 17.8042 18.55 18 18 18H2ZM2 16H18V4H13.95L12.125 2H7.875L6.05 4H2V16Z" fill="#1C1B1F"/>
</g>
</svg>
