<svg width="28" height="24" viewBox="0 0 28 24" fill="none" xmlns="http://www.w3.org/2000/svg">
<path fill-rule="evenodd" clip-rule="evenodd" d="M24.4863 2.29292C24.3793 2.19994 24.2523 2.12618 24.1125 2.07586C23.9727 2.02553 23.8229 1.99963 23.6715 1.99963C23.5202 1.99963 23.3704 2.02553 23.2306 2.07586C23.0908 2.12618 22.9638 2.19994 22.8568 2.29292L21.8527 3.16492C21.2078 2.89767 20.4833 2.81062 19.779 2.91574C19.0748 3.02087 18.4254 3.313 17.9202 3.75192L5.70589 14.3579L12.2201 20.0149L24.4356 9.40792C24.9409 8.96936 25.2771 8.40552 25.398 7.79408C25.5188 7.18264 25.4184 6.5537 25.1104 5.99392L26.1157 5.12092C26.3316 4.93339 26.4528 4.67908 26.4528 4.41392C26.4528 4.14875 26.3316 3.89445 26.1157 3.70692L24.4863 2.29292ZM19.5715 10.8029L12.2201 17.1869L8.96358 14.3579L16.3138 7.97492L19.5715 10.8029ZM21.665 8.98492L22.805 7.99492C22.9121 7.90205 22.997 7.79176 23.055 7.67036C23.1129 7.54896 23.1428 7.41884 23.1428 7.28742C23.1428 7.156 23.1129 7.02588 23.055 6.90448C22.997 6.78308 22.9121 6.67279 22.805 6.57992L21.1779 5.16592C21.071 5.07294 20.944 4.99918 20.8042 4.94886C20.6644 4.89853 20.5145 4.87263 20.3632 4.87263C20.2119 4.87263 20.062 4.89853 19.9222 4.94886C19.7824 4.99918 19.6554 5.07294 19.5485 5.16592L18.4085 6.15592L21.665 8.98592V8.98492Z" fill="#5BFF0E"/>
<path d="M2.3031 22.9499L4.74665 15.1719L11.2597 20.8289L2.3031 22.9499Z" fill="#5BFF0E"/>
</svg>
