<svg width="300" height="44" viewBox="0 0 300 44" fill="none" xmlns="http://www.w3.org/2000/svg">
<circle opacity="0.5" cx="22" cy="22" r="22" fill="#F9A826"/>
<path opacity="0.5" d="M15.5177 20.0952L23.8659 11.747C24.4429 11.17 25.376 11.17 25.9468 11.747L27.3341 13.1343C27.9111 13.7113 27.9111 14.6443 27.3341 15.2152L21.4228 21.1388L27.3403 27.0562C27.9173 27.6332 27.9173 28.5662 27.3403 29.1371L25.953 30.5305C25.376 31.1075 24.4429 31.1075 23.8721 30.5305L15.5238 22.1823C14.9407 21.6053 14.9407 20.6722 15.5177 20.0952Z" fill="#0F0F0F"/>
<circle opacity="0.5" cx="277.2" cy="22" r="22" fill="#F9A826"/>
<path opacity="0.5" d="M282.535 22.1823L274.187 30.5305C273.61 31.1075 272.677 31.1075 272.106 30.5305L270.718 29.1432C270.141 28.5662 270.141 27.6332 270.718 27.0623L276.636 21.1449L270.718 15.2275C270.141 14.6505 270.141 13.7175 270.718 13.1466L272.1 11.747C272.677 11.17 273.61 11.17 274.181 11.747L282.529 20.0952C283.112 20.6722 283.112 21.6053 282.535 22.1823Z" fill="black"/>
</svg>
